<svg width="512" height="512" xmlns="http://www.w3.org/2000/svg">
 <title/>

 <g>
  <title>background</title>
  <rect fill="none" id="canvas_background" height="514" width="514" y="-1" x="-1"/>
 </g>
 <g>
  <title>Layer 1</title>
  <path id="svg_1" fill="#fff133" d="m276.6,127.6a148.4,148.4 0 0 0 -114.46,242.86a148.49,148.49 0 0 0 164.33,16.54a150.66,150.66 0 0 1 -15.94,-16.51a148.38,148.38 0 0 1 9.79,-236.29a148.18,148.18 0 0 0 -43.72,-6.6z"/>
  <path id="svg_2" stroke-width="20" stroke-linejoin="round" stroke-linecap="round" stroke="#02005c" fill="none" d="m116.5,207c-0.37,1.05 -0.73,2.11 -1.07,3.17"/>
  <path id="svg_3" stroke-width="20" stroke-linejoin="round" stroke-linecap="round" stroke="#02005c" fill="none" d="m109.77,234.43a148.43,148.43 0 0 0 221,150.11a148.44,148.44 0 0 1 0,-257.08a148.46,148.46 0 0 0 -204,56.62"/>
  <g stroke="null" id="svg_14">
   <path stroke="null" id="svg_9" fill="#b6c4cf" d="m344.645082,318.141315a95.241293,88.452193 0 0 0 -6.651485,-19.634535a58.35908,54.19906 0 0 0 -11.472453,2.802529a95.730639,88.906657 0 0 0 -18.033318,-37.41755a96.05687,89.209633 0 0 0 -154.270958,70.963738c0,2.289153 0.099682,4.553058 0.280921,6.800131a45.309844,42.080016 0 0 0 -52.767845,60.452151a45.110481,41.894864 0 0 0 21.67623,5.125346l223.830631,0a58.902798,54.70402 0 0 0 49.704899,-84.033791a58.902798,54.70402 0 0 0 -52.296622,-5.049602l0,-0.008416z"/>
   <path stroke="#02005c" id="svg_10" stroke-width="20" stroke-linejoin="round" stroke-linecap="round" fill="none" d="m142.889407,285.041175c-0.063434,0.159904 -0.13593,0.311392 -0.199363,0.471296s-0.13593,0.302976 -0.199363,0.46288"/>
   <path stroke="#02005c" id="svg_11" stroke-width="20" stroke-miterlimit="10" stroke-linecap="round" fill="none" d="m406.021797,355.398961c1.685526,-27.831722 -20.760971,-53.155476 -50.493291,-57.026837a59.256214,55.032244 0 0 0 -28.9983,2.945601c-5.84497,-28.681739 -27.185907,-52.945076 -55.567993,-65.198776c-39.71861,-18.245895 -91.371832,-3.938689 -116.881275,29.927307"/>
   <path stroke="#02005c" id="svg_12" stroke-width="20" stroke-miterlimit="10" stroke-linecap="round" fill="none" d="m387.698496,392.286303a58.603753,54.426292 0 0 0 12.360526,-15.670598"/>
   <path stroke="#02005c" id="svg_13" stroke-width="20" stroke-miterlimit="10" stroke-linecap="round" fill="none" d="m136.845074,306.830207a97.606467,90.64877 0 0 0 -0.480284,18.001831a45.744819,42.483984 0 0 0 -53.737475,21.991016a43.787434,40.666127 0 0 0 0,36.845262c2.718591,4.208002 5.437181,9.257603 9.968166,12.624005a75.594944,70.206298 0 0 0 10.874363,6.732803a109.559204,101.749478 0 0 0 16.311544,4.208002q116.899399,1.2624 233.798797,0c4.530984,0 9.968166,-2.524801 14.426654,-3.501057"/>
  </g>
 </g>
</svg>