<svg width="512" height="512" xmlns="http://www.w3.org/2000/svg">
 <title/>

 <g>
  <title>background</title>
  <rect fill="none" id="canvas_background" height="514" width="514" y="-1" x="-1"/>
 </g>
 <g>
  <title>Layer 1</title>
  <path stroke="null" id="svg_1" fill="#fff133" d="m229.445692,124.599992a101.247389,120.524544 0 0 0 -78.091484,197.241178a101.308793,120.597639 0 0 0 112.115792,13.433126a102.789297,122.360026 0 0 1 -10.875225,-13.408762a101.233744,120.508301 0 0 1 6.679326,-191.905287a101.097292,120.345869 0 0 0 -29.828409,-5.360256z"/>
  <path stroke="#02005c" id="svg_2" stroke-width="20" stroke-linejoin="round" stroke-linecap="round" fill="none" d="m117.5,194c-0.37,-0.274922 -0.73,-0.552462 -1.07,-0.830002"/>
  <path stroke="#02005c" id="svg_3" stroke-width="20" stroke-linejoin="round" stroke-linecap="round" fill="none" d="m112.166873,215.063351a110.416945,123.422623 0 0 0 164.401704,124.819578a110.424384,123.430938 0 0 1 0,-213.767351a110.439262,123.447568 0 0 0 -151.755419,47.080704"/>
  <g stroke="null" id="svg_13">
   <path stroke="null" id="svg_8" fill="#b6c4cf" d="m313.762231,258.654662a84.215522,96.818609 0 0 0 -5.881465,-21.491705a51.603041,59.32558 0 0 0 -10.144325,3.067611a84.648218,97.316059 0 0 0 -15.94566,-40.956759a84.936683,97.647693 0 0 0 -136.411517,77.675976c0,2.505677 0.088142,4.983717 0.2484,7.443334a40.064473,46.060233 0 0 0 -46.659085,66.17013a39.888189,45.857568 0 0 0 19.166844,5.610136l197.918496,0a52.083815,59.878302 0 0 0 43.950727,-91.982285a52.083815,59.878302 0 0 0 -46.242415,-5.527228l0,-0.009212z"/>
   <path stroke="#02005c" id="svg_9" stroke-width="20" stroke-linejoin="round" stroke-linecap="round" fill="none" d="m135.363146,222.423683c-0.05609,0.175029 -0.120193,0.340846 -0.176284,0.515875s-0.120193,0.331634 -0.176284,0.506663"/>
   <path stroke="#02005c" id="svg_10" stroke-width="20" stroke-miterlimit="10" stroke-linecap="round" fill="none" d="m368.033566,299.436392c1.490398,-30.464238 -18.357541,-58.183286 -44.647849,-62.420827a52.396318,60.237572 0 0 0 -25.641263,3.224216c-5.168317,-31.394655 -24.038684,-57.952985 -49.13507,-71.365724c-35.120517,-19.971717 -80.794016,-4.311238 -103.350314,32.758037"/>
   <path stroke="#02005c" id="svg_11" stroke-width="20" stroke-miterlimit="10" stroke-linecap="round" fill="none" d="m351.831493,339.812792a51.819389,59.574305 0 0 0 10.929588,-17.152831"/>
   <path stroke="#02005c" id="svg_12" stroke-width="20" stroke-miterlimit="10" stroke-linecap="round" fill="none" d="m130.018545,246.273671a86.306888,99.222953 0 0 0 -0.424683,19.704568a40.449092,46.502411 0 0 0 -47.516465,24.071078a38.718307,44.512609 0 0 0 0,40.33034c2.403868,4.606023 4.807737,10.133251 8.814184,13.81807a66.843567,76.846892 0 0 0 9.615474,7.369637a96.875896,111.373642 0 0 0 14.42321,4.606023q103.36634,1.381807 206.73268,0c4.006447,0 8.814184,-2.763614 12.756528,-3.832211"/>
  </g>
 </g>
</svg>