<svg width="512" height="512" xmlns="http://www.w3.org/2000/svg">
 <title/>

 <g>
  <title>background</title>
  <rect fill="none" id="canvas_background" height="514" width="514" y="-1" x="-1"/>
 </g>
 <g>
  <title>Layer 1</title>
  <path id="svg_1" fill="#b6c4cf" d="m380.14,190.14a105.1,105.1 0 0 0 -7.34,-23.33a64.4,64.4 0 0 0 -12.66,3.33a105.64,105.64 0 0 0 -19.9,-44.46a106,106 0 0 0 -170.24,84.32c0,2.72 0.11,5.41 0.31,8.08a50,50 0 0 0 -58.23,71.83a49.78,49.78 0 0 0 23.92,6.09l247,0a65,65 0 0 0 54.85,-99.85a65,65 0 0 0 -57.71,-6l0,-0.01z"/>
  <path id="svg_2" stroke-width="20" stroke-linejoin="round" stroke-linecap="round" stroke="#02005c" fill="none" d="m157.5,150.81c-0.07,0.19 -0.15,0.37 -0.22,0.56s-0.15,0.36 -0.22,0.55"/>
  <path id="svg_3" stroke-width="20" stroke-miterlimit="10" stroke-linecap="round" stroke="#02005c" fill="none" d="m447.87,234.41c1.86,-33.07 -22.91,-63.16 -55.72,-67.76a65.39,65.39 0 0 0 -32,3.5c-6.45,-34.08 -30,-62.91 -61.32,-77.47c-43.83,-21.68 -100.83,-4.68 -128.98,35.56"/>
  <path id="svg_4" stroke-width="20" stroke-miterlimit="10" stroke-linecap="round" stroke="#02005c" fill="none" d="m427.65,278.24a64.67,64.67 0 0 0 13.64,-18.62"/>
  <path id="svg_5" stroke-width="20" stroke-miterlimit="10" stroke-linecap="round" stroke="#02005c" fill="none" d="m150.83,176.7a107.71,107.71 0 0 0 -0.53,21.39a50.48,50.48 0 0 0 -59.3,26.13a48.32,48.32 0 0 0 0,43.78c3,5 6,11 11,15a83.42,83.42 0 0 0 12,8a120.9,120.9 0 0 0 18,5q129,1.5 258,0c5,0 11,-3 15.92,-4.16"/>
  <path id="svg_6" fill="#fff" d="m211.83,279a23.29,23.29 0 1 0 23.29,23.29l0,0l0,-23.29l-23.29,0z"/>
  <path id="svg_7" fill="#60c3e5" d="m338.65,333.58l0,0.06a33,33 0 0 0 -31.08,44.06a33,33 0 0 0 44.06,-31.08l0.06,0l0,-13l-13.04,-0.04z"/>
  <path id="svg_8" fill="#60c3e5" d="m235.12,302.29l0,0l0,-3.29l-3.33,0l0,0a23.29,23.29 0 0 0 -23.29,23.29a22.34,22.34 0 0 0 0.21,3.08a24,24 0 0 0 3.08,0.21a23.29,23.29 0 0 0 23.33,-23.29z"/>
  <path id="svg_9" fill="#60c3e5" d="m165.26,371l0,0.08a42.26,42.26 0 0 0 -38.16,60.42a42.27,42.27 0 0 0 60.43,-38.16l0.07,0l0,-22.34l-22.34,0z"/>
  <path id="svg_10" stroke-width="20" stroke-linejoin="round" stroke-linecap="round" stroke="#02005c" fill="none" d="m211.83,279a23.29,23.29 0 1 0 23.29,23.29l0,0l0,-23.29l-23.29,0z"/>
  <path id="svg_11" stroke-width="20" stroke-linejoin="round" stroke-linecap="round" stroke="#02005c" fill="none" d="m106.09,377.47l-0.15,0.37"/>
  <path id="svg_12" stroke-width="20" stroke-linejoin="round" stroke-linecap="round" stroke="#02005c" fill="none" d="m103.92,402.18a42.27,42.27 0 0 0 83.6,-8.84l0.07,0l0,-42.34l-42.33,0a42,42 0 0 0 -24.26,7.75"/>
  <path id="svg_13" stroke-width="20" stroke-linejoin="round" stroke-linecap="round" stroke="#02005c" fill="none" d="m288.25,333.76c-0.06,0.14 -0.11,0.29 -0.17,0.44"/>
  <path id="svg_14" stroke-width="20" stroke-linejoin="round" stroke-linecap="round" stroke="#02005c" fill="none" d="m287.65,357.94a33,33 0 0 0 64,-11.32l0.06,0l0,-33l-33,0l0,0.06a32.87,32.87 0 0 0 -13.57,2.91"/>
  <path id="svg_15" fill="#60c3e5" d="m263.26,415l0,0.08a42.26,42.26 0 0 0 -38.16,60.42a42.27,42.27 0 0 0 60.43,-38.16l0.07,0l0,-22.34l-22.34,0z"/>
  <path id="svg_16" stroke-width="20" stroke-linejoin="round" stroke-linecap="round" stroke="#02005c" fill="none" d="m204.09,421.47l-0.15,0.37"/>
  <path id="svg_17" stroke-width="20" stroke-linejoin="round" stroke-linecap="round" stroke="#02005c" fill="none" d="m201.92,446.18a42.27,42.27 0 0 0 83.6,-8.84l0.07,0l0,-42.34l-42.33,0a42,42 0 0 0 -24.26,7.75"/>
  <path id="svg_18" fill="#fff" d="m235.83,337a23.29,23.29 0 1 0 23.29,23.29l0,0l0,-23.29l-23.29,0z"/>
  <path id="svg_19" fill="#60c3e5" d="m259.12,360.29l0,0l0,-3.29l-3.33,0l0,0a23.29,23.29 0 0 0 -23.29,23.29a22.34,22.34 0 0 0 0.21,3.08a24,24 0 0 0 3.08,0.21a23.29,23.29 0 0 0 23.33,-23.29z"/>
  <path id="svg_20" stroke-width="20" stroke-linejoin="round" stroke-linecap="round" stroke="#02005c" fill="none" d="m235.83,337a23.29,23.29 0 1 0 23.29,23.29l0,0l0,-23.29l-23.29,0z"/>
 </g>
</svg>