<svg width="512" height="512" xmlns="http://www.w3.org/2000/svg">
 <title/>

 <g>
  <title>background</title>
  <rect fill="none" id="canvas_background" height="514" width="514" y="-1" x="-1"/>
 </g>
 <g>
  <title>Layer 1</title>
  <g id="cloud">
   <path id="svg_1" fill="#b6c4cf" d="m380.14,190.14a105.1,105.1 0 0 0 -7.34,-23.33a64.4,64.4 0 0 0 -12.66,3.33a105.64,105.64 0 0 0 -19.9,-44.46a106,106 0 0 0 -170.24,84.32c0,2.72 0.11,5.41 0.31,8.08a50,50 0 0 0 -58.23,71.83a49.78,49.78 0 0 0 23.92,6.09l247,0a65,65 0 0 0 54.85,-99.85a65,65 0 0 0 -57.71,-6l0,-0.01z"/>
  </g>
  <line id="svg_2" y2="256" y1="256" x2="350.41" x1="181" stroke-width="20" stroke-linejoin="round" stroke-linecap="round" stroke="#02005c" fill="none"/>
  <path id="svg_3" stroke-width="20" stroke-linejoin="round" stroke-linecap="round" stroke="#02005c" fill="none" d="m157.5,150.81c-0.07,0.19 -0.15,0.37 -0.22,0.56s-0.15,0.36 -0.22,0.55"/>
  <path id="svg_4" stroke-width="20" stroke-miterlimit="10" stroke-linecap="round" stroke="#02005c" fill="none" d="m447.87,234.41c1.86,-33.07 -22.91,-63.16 -55.72,-67.76a65.39,65.39 0 0 0 -32,3.5c-6.45,-34.08 -30,-62.91 -61.32,-77.47c-43.83,-21.68 -100.83,-4.68 -128.98,35.56"/>
  <path id="svg_5" stroke-width="20" stroke-miterlimit="10" stroke-linecap="round" stroke="#02005c" fill="none" d="m427.65,278.24a64.67,64.67 0 0 0 13.64,-18.62"/>
  <path id="svg_6" stroke-width="20" stroke-miterlimit="10" stroke-linecap="round" stroke="#02005c" fill="none" d="m150.83,176.7a107.71,107.71 0 0 0 -0.53,21.39a50.48,50.48 0 0 0 -59.3,26.13a48.32,48.32 0 0 0 0,43.78c3,5 6,11 11,15a83.42,83.42 0 0 0 12,8a120.9,120.9 0 0 0 18,5q129,1.5 258,0c5,0 11,-3 15.92,-4.16"/>
  <path id="svg_7" fill="#fff" d="m230.31,256l-18.46,118.4l44.41,0l-25.95,94.6l81.57,-127.8l-41.12,0l41.12,-85.2l-81.57,0z"/>
  <polygon id="svg_8" points="270.76 341.2 302.22 276 250.32 276 234.97 374.4 256.25 374.4 250.77 394.4 276.26 394.4 275 398.98 299.11 361.2 290.77 361.2 300.42 341.2 270.76 341.2" fill="#fc0"/>
  <line id="svg_9" y2="335.44" y1="334.86" x2="217.92" x1="218.01" stroke-width="20" stroke-linejoin="round" stroke-linecap="round" stroke="#02005c" fill="none"/>
  <polyline id="svg_10" stroke-width="20" stroke-linejoin="round" stroke-linecap="round" stroke="#02005c" points="214.13 359.76 211.84 374.4 256.25 374.4 230.31 469.01 311.88 341.2 270.76 341.2 311.88 256 230.31 256 221.98 309.42" fill="none"/>
  <g stroke="null" id="svg_24">
   <path stroke="null" id="svg_15" fill="#60c3e5" d="m320.10178,342.264644l0,0.055348a43.347332,31.95246 0 0 0 -37.227797,48.318894a43.347332,31.95246 0 0 0 65.550357,-27.436055l0.075086,0l0,-20.938187l-28.397646,0z"/>
   <path stroke="null" id="svg_16" fill="#60c3e5" d="m196.081706,402.726911l0,0.066418a55.563876,40.957596 0 0 0 -46.05044,63.816363a55.563876,40.957596 0 0 0 86.574526,-33.950526l0.090104,0l0,-29.932254l-40.61419,0z"/>
   <path stroke="null" id="svg_17" fill="#60c3e5" d="m223.105273,297.14487a30.605184,22.559887 0 0 0 -27.781938,31.985669a30.605184,22.559887 0 0 0 43.392384,-20.478798l0.05256,0l0,-11.545614l-15.663006,0l0,0.038744z"/>
   <path stroke="#02005c" id="svg_18" stroke-width="20" stroke-linejoin="round" stroke-linecap="round" fill="none" d="m129.592771,417.288997c-0.067578,0.116231 -0.120138,0.237997 -0.187716,0.359763"/>
   <path stroke="#02005c" id="svg_19" stroke-width="20" stroke-linejoin="round" stroke-linecap="round" fill="none" d="m125.575652,431.159232c0,0.498133 -0.045052,0.996266 -0.045052,1.499934a55.563876,40.957596 0 1 0 111.067684,0l0.090104,0l0,-41.007409l-55.623945,0a55.48879,40.902248 0 0 0 -41.545261,13.870235"/>
   <path stroke="#02005c" id="svg_20" stroke-width="20" stroke-linejoin="round" stroke-linecap="round" fill="none" d="m179.772958,300.06725c-0.067578,0.116231 -0.120138,0.237997 -0.187716,0.354228"/>
   <path stroke="#02005c" id="svg_21" stroke-width="20" stroke-linejoin="round" stroke-linecap="round" fill="none" d="m178.383861,314.08139a30.605184,22.559887 0 0 0 60.309332,-5.446253l0.05256,0l0,-22.59863l-30.657744,0l0,0.038744a30.455011,22.449191 0 0 0 -16.391344,3.514605"/>
   <path stroke="#02005c" id="svg_22" stroke-width="20" stroke-linejoin="round" stroke-linecap="round" fill="none" d="m265.153612,350.738438c-0.075086,0.13837 -0.142664,0.282275 -0.225259,0.42618"/>
   <path stroke="#02005c" id="svg_23" stroke-width="20" stroke-linejoin="round" stroke-linecap="round" fill="none" d="m261.789745,364.735974a43.339824,31.946925 0 0 0 86.634595,-1.533142l0.075086,0l0,-32.007808l-43.422419,0l0,0.055348a43.174634,31.825159 0 0 0 -29.058406,8.246867"/>
  </g>
 </g>
</svg>